<svg xmlns="http://www.w3.org/2000/svg" width="1005" height="600"><rect width="1005" height="600" x="0" y="0" fill="#FFFFFF" id="background"/><clipPath id="serieClipPath"><rect x="0" y="0" width="805" height="600"/></clipPath><g transform="translate(0,0)" clip-path="url(#serieClipPath)"><g transform="translate(300, 300)"><g id="axes"><circle r="248" fill="none" stroke="LightGray" class="grid" id="2200000"/><circle r="225" fill="none" stroke="LightGray" class="grid" id="2000000"/><circle r="203" fill="none" stroke="LightGray" class="grid" id="1800000"/><circle r="180" fill="none" stroke="LightGray" class="grid" id="1600000"/><circle r="158" fill="none" stroke="LightGray" class="grid" id="1400000"/><circle r="135" fill="none" stroke="LightGray" class="grid" id="1200000"/><circle r="113" fill="none" stroke="LightGray" class="grid" id="1000000"/><circle r="90" fill="none" stroke="LightGray" class="grid" id="800000"/><circle r="68" fill="none" stroke="LightGray" class="grid" id="600000"/><circle r="45" fill="none" stroke="LightGray" class="grid" id="400000"/><circle r="23" fill="none" stroke="LightGray" class="grid" id="200000"/><circle r="0" fill="none" stroke="LightGray" class="grid" id="0"/><g><line x1="0" y1="0" x2="1.6532731788489267e-14" y2="-270" stroke="black"/><text text-anchor="middle" dy="0.35em" x="1.7145055188062946e-14" y="-280" font-family="Arial, sans-serif" font-size="12">depl_voiture_jour</text></g><g><line x1="0" y1="0" x2="270" y2="0" stroke="black"/><text text-anchor="middle" dy="0.35em" x="280" y="0" font-family="Arial, sans-serif" font-size="12">depl_velo_jour</text></g><g><line x1="0" y1="0" x2="1.6532731788489267e-14" y2="270" stroke="black"/><text text-anchor="middle" dy="0.35em" x="1.7145055188062946e-14" y="280" font-family="Arial, sans-serif" font-size="12">depl_tc_jour</text></g><g><line x1="0" y1="0" x2="-270" y2="3.3065463576978534e-14" stroke="black"/><text text-anchor="middle" dy="0.35em" x="-280" y="3.429011037612589e-14" font-family="Arial, sans-serif" font-size="12">depl_marche_jour</text></g><g id="y axis" fill="none" font-size="10" font-family="sans-serif" text-anchor="end" transform="translate(0, -270)"><path class="domain" stroke="currentColor" d="M-6,0H0V270H-6"/><g class="tick" opacity="1" transform="translate(0,8)"><line stroke="currentColor" x2="-6"/><text fill="currentColor" x="-9" dy="0.32em">2,200,000</text></g><g class="tick" opacity="1" transform="translate(0,32)"><line stroke="currentColor" x2="-6"/><text fill="currentColor" x="-9" dy="0.32em">2,000,000</text></g><g class="tick" opacity="1" transform="translate(0,56)"><line stroke="currentColor" x2="-6"/><text fill="currentColor" x="-9" dy="0.32em">1,800,000</text></g><g class="tick" opacity="1" transform="translate(0,80)"><line stroke="currentColor" x2="-6"/><text fill="currentColor" x="-9" dy="0.32em">1,600,000</text></g><g class="tick" opacity="1" transform="translate(0,103)"><line stroke="currentColor" x2="-6"/><text fill="currentColor" x="-9" dy="0.32em">1,400,000</text></g><g class="tick" opacity="1" transform="translate(0,127)"><line stroke="currentColor" x2="-6"/><text fill="currentColor" x="-9" dy="0.32em">1,200,000</text></g><g class="tick" opacity="1" transform="translate(0,151)"><line stroke="currentColor" x2="-6"/><text fill="currentColor" x="-9" dy="0.32em">1,000,000</text></g><g class="tick" opacity="1" transform="translate(0,175)"><line stroke="currentColor" x2="-6"/><text fill="currentColor" x="-9" dy="0.32em">800,000</text></g><g class="tick" opacity="1" transform="translate(0,199)"><line stroke="currentColor" x2="-6"/><text fill="currentColor" x="-9" dy="0.32em">600,000</text></g><g class="tick" opacity="1" transform="translate(0,222)"><line stroke="currentColor" x2="-6"/><text fill="currentColor" x="-9" dy="0.32em">400,000</text></g><g class="tick" opacity="1" transform="translate(0,246)"><line stroke="currentColor" x2="-6"/><text fill="currentColor" x="-9" dy="0.32em">200,000</text></g><g class="tick" opacity="1" transform="translate(0,270)"><line stroke="currentColor" x2="-6"/><text fill="currentColor" x="-9" dy="0.32em">0</text></g></g></g><g id="radars"><g id="0"><path d="M67,-4.102566777143633e-15C64.7211833855177,64.67707220889027,30.78324742714,177.97235996539735,2.228857174448183e-14,182C-32.972265267048215,186.31404828016997,-124.49663436176785,65.45779718797394,-128,2.351321854362918e-14C-131.81676033359338,-71.3133454027737,-32.809310597129304,-234.68506514804002,0,-231C31.310836910693435,-227.48323991709663,69.53776103260229,-72.02639848745113,67,-4.102566777143633e-15" stroke="#cccccc" fill="#cccccc" fill-opacity="0.5"/><g id="dots"><circle cx="1.414467053015193e-14" cy="-231" r="1" stroke="none" fill="#cccccc"/><circle cx="67" cy="0" r="1" stroke="none" fill="#cccccc"/><circle cx="1.1144285872240914e-14" cy="182" r="1" stroke="none" fill="#cccccc"/><circle cx="-128" cy="1.567547902908612e-14" r="1" stroke="none" fill="#cccccc"/></g></g><g id="1"><path d="M32,-1.959434878635765e-15C29.821197730163245,48.69649704900511,19.12694711860614,126.3252644602668,1.592040838891559e-14,130C-20.899235506338314,134.01523374285318,-87.9129875706201,50.117995458367,-93,1.7083822848105575e-14C-99.08565048244658,-59.95672459515621,-20.851605771416327,-211.79756474980948,0,-209C20.046605619717003,-206.31043844537237,34.73809246453153,-61.19670126328288,32,-1.959434878635765e-15" stroke="#cccccc" fill="#cccccc" fill-opacity="0.5"/><g id="dots"><circle cx="1.279755905108984e-14" cy="-209" r="1" stroke="none" fill="#cccccc"/><circle cx="32" cy="0" r="1" stroke="none" fill="#cccccc"/><circle cx="7.960204194457796e-15" cy="130" r="1" stroke="none" fill="#cccccc"/><circle cx="-93" cy="1.1389215232070385e-14" r="1" stroke="none" fill="#cccccc"/></g></g><g id="2"><path d="M14,-8.572527594031472e-16C12.394589579040646,44.02824787157259,13.52714668508912,105.63743212274325,1.334865011070615e-14,109C-14.90673094056587,112.70550388655936,-69.50066853787627,46.21036287741149,-77,1.4144670530151929e-14C-87.59499583698128,-65.28563309734271,-15.106282524743575,-256.8093058077388,0,-255C14.791432815359942,-253.22840429114353,16.447333609630345,-67.11792161212306,14,-8.572527594031472e-16" stroke="#cccccc" fill="#cccccc" fill-opacity="0.5"/><g id="dots"><circle cx="1.5614246689128753e-14" cy="-255" r="1" stroke="none" fill="#cccccc"/><circle cx="14" cy="0" r="1" stroke="none" fill="#cccccc"/><circle cx="6.674325055353075e-15" cy="109" r="1" stroke="none" fill="#cccccc"/><circle cx="-77" cy="9.429780353434619e-15" r="1" stroke="none" fill="#cccccc"/></g></g><g id="3"><path d="M19,-1.1634144591899855e-15C17.164106271512733,38.85695189015395,12.886548573129573,96.44565199183639,1.2124003311558797e-14,99C-13.967712139234271,101.76865426603447,-59.62976807874247,40.25130459776475,-65,1.1940306291686693e-14C-72.13990678196397,-53.515484413786794,-13.986323214090184,-200.54840829901048,0,-199C13.667289871447998,-197.48691148216767,21.585321420338236,-54.718695582364575,19,-1.1634144591899855e-15" stroke="#cccccc" fill="#cccccc" fill-opacity="0.5"/><g id="dots"><circle cx="1.2185235651516165e-14" cy="-199" r="1" stroke="none" fill="#cccccc"/><circle cx="19" cy="0" r="1" stroke="none" fill="#cccccc"/><circle cx="6.0620016557793985e-15" cy="99" r="1" stroke="none" fill="#cccccc"/><circle cx="-65" cy="7.960204194457796e-15" r="1" stroke="none" fill="#cccccc"/></g></g><g id="4"><path d="M35,-2.1431318985078682e-15C32.989390088571376,35.6244821738048,17.363419273036836,93.08456981172793,1.175660927181459e-14,96C-19.103924188458457,99.20767219967912,-74.53553284548038,36.593408404189496,-78,1.432836755002403e-14C-81.9970719412377,-42.21904247982939,-18.958996431117235,-147.44665749280435,0,-145C18.045523035010056,-142.67122620094412,37.42926447388676,-43.042306940556465,35,-2.1431318985078682e-15" stroke="#cccccc" fill="#cccccc" fill-opacity="0.5"/><g id="dots"><circle cx="8.878689293818311e-15" cy="-145" r="1" stroke="none" fill="#cccccc"/><circle cx="35" cy="0" r="1" stroke="none" fill="#cccccc"/><circle cx="5.878304635907295e-15" cy="96" r="1" stroke="none" fill="#cccccc"/><circle cx="-78" cy="9.552245033349356e-15" r="1" stroke="none" fill="#cccccc"/></g></g><g id="5"><path d="M20,-1.2246467991473533e-15C18.5421530743416,36.54305647508847,12.068839548145743,95.00316084625312,1.1879073951729327e-14,97C-12.863246812457856,99.12827710377277,-53.420937127312364,37.361824456710195,-57,1.047073013270987e-14C-61.40973165376734,-46.03317287509193,-12.841985231865621,-162.39674703018665,0,-161C12.51623345713804,-159.63868307004427,21.865869810750656,-46.770744355502046,20,-1.2246467991473533e-15" stroke="#cccccc" fill="#cccccc" fill-opacity="0.5"/><g id="dots"><circle cx="9.858406733136194e-15" cy="-161" r="1" stroke="none" fill="#cccccc"/><circle cx="20" cy="0" r="1" stroke="none" fill="#cccccc"/><circle cx="5.939536975864663e-15" cy="97" r="1" stroke="none" fill="#cccccc"/><circle cx="-57" cy="6.980486755139913e-15" r="1" stroke="none" fill="#cccccc"/></g></g><g id="6"><path d="M26,-1.592040838891559e-15C24.412526690454285,28.694326366329562,13.456083699895395,74.60517220198581,9.429780353434619e-15,77C-14.840804670111567,79.64127158849038,-59.07233310155812,29.53761754488183,-62,1.1389215232070385e-14C-65.41085273643854,-34.41254320443835,-14.741553192146442,-120.96631007923678,0,-119C14.045315092184623,-117.12655801788024,27.943456171065534,-35.12888394146939,26,-1.592040838891559e-15" stroke="#cccccc" fill="#cccccc" fill-opacity="0.5"/><g id="dots"><circle cx="7.286648454926752e-15" cy="-119" r="1" stroke="none" fill="#cccccc"/><circle cx="26" cy="0" r="1" stroke="none" fill="#cccccc"/><circle cx="4.7148901767173095e-15" cy="77" r="1" stroke="none" fill="#cccccc"/><circle cx="-62" cy="7.59281015471359e-15" r="1" stroke="none" fill="#cccccc"/></g></g><g id="7"><path d="M36,-2.204364238465236e-15C34.09047240369144,21.27882428028679,13.071789360797503,55.38103481879416,6.858022075225178e-15,56C-13.520100325875706,56.640193252595076,-41.868733506290305,21.486566356762374,-44,8.082668874372531e-15C-46.49362404149736,-25.139708522884025,-13.428111771271448,-87.50980523863193,0,-87C13.196130513836136,-86.49900205030934,38.27088784736381,-25.30564290231122,36,-2.204364238465236e-15" stroke="#cccccc" fill="#cccccc" fill-opacity="0.5"/><g id="dots"><circle cx="5.327213576290987e-15" cy="-87" r="1" stroke="none" fill="#cccccc"/><circle cx="36" cy="0" r="1" stroke="none" fill="#cccccc"/><circle cx="3.429011037612589e-15" cy="56" r="1" stroke="none" fill="#cccccc"/><circle cx="-44" cy="5.3884459162483544e-15" r="1" stroke="none" fill="#cccccc"/></g></g><g id="8"><path d="M25,-1.5308084989341915e-15C23.028983788395188,19.288357470870398,10.964139323857923,47.44343734705635,6.000769315822031e-15,49C-12.119085161640783,50.72052860632711,-43.115311848339566,20.049439302023952,-46,8.450062914116736e-15C-49.55314850303917,-24.695437252638783,-11.933203138223655,-92.19684854219003,0,-91C11.480232811695739,-89.8485824178532,27.581627853885475,-25.26380077917027,25,-1.5308084989341915e-15" stroke="#cccccc" fill="#cccccc" fill-opacity="0.5"/><g id="dots"><circle cx="5.572142936120457e-15" cy="-91" r="1" stroke="none" fill="#cccccc"/><circle cx="25" cy="0" r="1" stroke="none" fill="#cccccc"/><circle cx="3.0003846579110155e-15" cy="49" r="1" stroke="none" fill="#cccccc"/><circle cx="-46" cy="5.633375276077825e-15" r="1" stroke="none" fill="#cccccc"/></g></g><g id="9"><path d="M30,-1.83697019872103e-15C28.682985570951743,19.544641906580225,11.952535565031216,51.867875030934734,6.490628035480972e-15,53C-12.770929216593698,54.20964190113523,-43.373730330467914,19.845625925640366,-45,8.266365894244634e-15C-46.82402698725031,-22.258889743456507,-12.657168498306314,-76.0141858416641,0,-75C12.163717687865034,-74.02535308250951,31.516776019361618,-22.50912632167133,30,-1.83697019872103e-15" stroke="#cccccc" fill="#cccccc" fill-opacity="0.5"/><g id="dots"><circle cx="4.592425496802574e-15" cy="-75" r="1" stroke="none" fill="#cccccc"/><circle cx="30" cy="0" r="1" stroke="none" fill="#cccccc"/><circle cx="3.245314017740486e-15" cy="53" r="1" stroke="none" fill="#cccccc"/><circle cx="-45" cy="5.5109105961630896e-15" r="1" stroke="none" fill="#cccccc"/></g></g><g id="10"><path d="M18,-1.102182119232618e-15C16.251830945028274,21.11594246083151,8.873824978409997,51.62714677599539,6.490628035480972e-15,53C-9.621498889967455,54.48852448667693,-35.7614217712436,21.897587815450187,-39,7.164183775012016e-15C-43.31305172140609,-29.162620801763133,-9.530348017386487,-110.85294355474781,0,-110C9.31369201088848,-109.1664466442253,20.466940587582712,-29.7979050444459,18,-1.102182119232618e-15" stroke="#cccccc" fill="#cccccc" fill-opacity="0.5"/><g id="dots"><circle cx="6.735557395310443e-15" cy="-110" r="1" stroke="none" fill="#cccccc"/><circle cx="18" cy="0" r="1" stroke="none" fill="#cccccc"/><circle cx="3.245314017740486e-15" cy="53" r="1" stroke="none" fill="#cccccc"/><circle cx="-39" cy="4.776122516674678e-15" r="1" stroke="none" fill="#cccccc"/></g></g><g id="11"><path d="M8,-4.898587196589413e-16C7.203815931642906,27.88648434867324,7.414348289773523,69.49373666581515,8.694992273946208e-15,71C-7.918308475344331,72.60864546134512,-36.480754934388266,28.716038352811562,-40,7.347880794884118e-15C-44.78121515330361,-39.013355181459815,-7.976981482834847,-145.85701498028817,0,-145C7.838003149429193,-144.15791629589953,9.13508541460781,-39.75656246699875,8,-4.898587196589413e-16" stroke="#cccccc" fill="#cccccc" fill-opacity="0.5"/><g id="dots"><circle cx="8.878689293818311e-15" cy="-145" r="1" stroke="none" fill="#cccccc"/><circle cx="8" cy="0" r="1" stroke="none" fill="#cccccc"/><circle cx="4.347496136973104e-15" cy="71" r="1" stroke="none" fill="#cccccc"/><circle cx="-40" cy="4.898587196589413e-15" r="1" stroke="none" fill="#cccccc"/></g></g><g id="12"><path d="M3,-1.8369701987210297e-16C2.646245329361595,16.217260987935582,4.436176378738016,38.822517874105046,4.898587196589413e-15,40C-4.865888646858322,41.2915394743391,-24.26085556178673,16.995887042481595,-27,4.95981953654678e-15C-30.937528936841343,-24.43164226882139,-4.971996719190815,-96.60690524893684,0,-96C4.879454023601145,-95.40439094671179,3.5473999649449968,-25.094589084235412,3,-1.8369701987210297e-16" stroke="#cccccc" fill="#cccccc" fill-opacity="0.5"/><g id="dots"><circle cx="5.878304635907295e-15" cy="-96" r="1" stroke="none" fill="#cccccc"/><circle cx="3" cy="0" r="1" stroke="none" fill="#cccccc"/><circle cx="2.4492935982947065e-15" cy="40" r="1" stroke="none" fill="#cccccc"/><circle cx="-27" cy="3.3065463576978537e-15" r="1" stroke="none" fill="#cccccc"/></g></g><g id="13"><path d="M3,-1.8369701987210297e-16C2.6858282833128126,8.337389194382704,2.6800950294337,20.346475548665772,2.5717582782094417e-15,21C-2.9560761815240806,21.720820733375596,-13.688017151361343,8.725168264006983,-15,2.7554552980815444e-15C-16.77871034053403,-11.829077666824691,-2.987707275861733,-45.383287313682835,0,-45C2.9132660805252115,-44.62626260642426,3.4580909308225354,-12.156671571067228,3,-1.8369701987210297e-16" stroke="#cccccc" fill="#cccccc" fill-opacity="0.5"/><g id="dots"><circle cx="2.7554552980815448e-15" cy="-45" r="1" stroke="none" fill="#cccccc"/><circle cx="3" cy="0" r="1" stroke="none" fill="#cccccc"/><circle cx="1.2858791391047208e-15" cy="21" r="1" stroke="none" fill="#cccccc"/><circle cx="-15" cy="1.83697019872103e-15" r="1" stroke="none" fill="#cccccc"/></g></g><g id="14"><path d="M3,-1.8369701987210297e-16C2.696933304201041,11.80843775502957,3.4342515690456095,29.144398268126974,3.67394039744206e-15,30C-3.7555796109797313,30.93565667940694,-18.292979971107915,12.29287020882157,-20,3.673940397442059e-15C-22.294545228136162,-16.523852210483877,-3.8114799800987513,-62.50546208400558,0,-62C3.7204849442866306,-61.50660528632717,3.434857530802597,-16.943425839817902,3,-1.8369701987210297e-16" stroke="#cccccc" fill="#cccccc" fill-opacity="0.5"/><g id="dots"><circle cx="3.796405077356795e-15" cy="-62" r="1" stroke="none" fill="#cccccc"/><circle cx="3" cy="0" r="1" stroke="none" fill="#cccccc"/><circle cx="1.83697019872103e-15" cy="30" r="1" stroke="none" fill="#cccccc"/><circle cx="-20" cy="2.4492935982947065e-15" r="1" stroke="none" fill="#cccccc"/></g></g><g id="15"><path d="M5,-3.061616997868383e-16C4.52521363115033,7.86264509380399,3.243099381643891,19.241478640574957,2.4492935982947065e-15,20C-3.659466959587486,20.855904653637324,-15.737101853751717,8.282540065152096,-17,3.1228493378257506e-15C-18.625067892546802,-10.65777946431877,-3.6615975905509517,-40.511361415573106,0,-40C3.526354469548873,-39.50752599957612,5.663917858361101,-10.994735388843049,5,-3.061616997868383e-16" stroke="#cccccc" fill="#cccccc" fill-opacity="0.5"/><g id="dots"><circle cx="2.4492935982947065e-15" cy="-40" r="1" stroke="none" fill="#cccccc"/><circle cx="5" cy="0" r="1" stroke="none" fill="#cccccc"/><circle cx="1.2246467991473533e-15" cy="20" r="1" stroke="none" fill="#cccccc"/><circle cx="-17" cy="2.0818995585505003e-15" r="1" stroke="none" fill="#cccccc"/></g></g><g id="16"><path d="M6,-3.6739403974420594e-16C5.501706313849418,8.481811349008115,3.695325512033928,21.161800209280827,2.6942229581241772e-15,22C-4.172208866395164,22.946369835961825,-17.79796334365345,8.886152986653888,-19,3.4902433775699565e-15C-20.48362086676278,-10.967786986061169,-4.16499123367856,-40.61789061575139,0,-40C3.980526486544625,-39.40947535689924,6.663636666577336,-11.296231854104901,6,-3.6739403974420594e-16" stroke="#cccccc" fill="#cccccc" fill-opacity="0.5"/><g id="dots"><circle cx="2.4492935982947065e-15" cy="-40" r="1" stroke="none" fill="#cccccc"/><circle cx="6" cy="0" r="1" stroke="none" fill="#cccccc"/><circle cx="1.3471114790620886e-15" cy="22" r="1" stroke="none" fill="#cccccc"/><circle cx="-19" cy="2.326828918379971e-15" r="1" stroke="none" fill="#cccccc"/></g></g><g id="17"><path d="M8,-4.898587196589413e-16C7.301239638406244,7.508764997172056,4.102366578157937,18.141657729072893,2.326828918379971e-15,19C-4.7455155084000165,19.992908966226235,-18.732452920214264,7.968865930624156,-20,3.673940397442059e-15C-21.56512811566005,-9.83971034831595,-4.688012097870306,-37.66689199888677,0,-37C4.447524131019027,-36.36731855722389,8.94687483822101,-10.174962737898385,8,-4.898587196589413e-16" stroke="#cccccc" fill="#cccccc" fill-opacity="0.5"/><g id="dots"><circle cx="2.2655965784226034e-15" cy="-37" r="1" stroke="none" fill="#cccccc"/><circle cx="8" cy="0" r="1" stroke="none" fill="#cccccc"/><circle cx="1.1634144591899855e-15" cy="19" r="1" stroke="none" fill="#cccccc"/><circle cx="-20" cy="2.4492935982947065e-15" r="1" stroke="none" fill="#cccccc"/></g></g><g id="18"><path d="M6,-3.6739403974420594e-16C5.5042412372345595,6.975855169199073,2.963491180260213,17.54645055529911,2.204364238465236e-15,18C-3.205824500603046,18.490637506108374,-12.09524176962762,7.194099083781646,-13,2.3880612583373385e-15C-14.143512648999408,-9.092532153118423,-3.17909682236333,-33.31161759638105,0,-33C3.091517614349399,-32.69696698717183,6.659147948472494,-9.274915481008481,6,-3.6739403974420594e-16" stroke="#cccccc" fill="#cccccc" fill-opacity="0.5"/><g id="dots"><circle cx="2.0206672185931327e-15" cy="-33" r="1" stroke="none" fill="#cccccc"/><circle cx="6" cy="0" r="1" stroke="none" fill="#cccccc"/><circle cx="1.102182119232618e-15" cy="18" r="1" stroke="none" fill="#cccccc"/><circle cx="-13" cy="1.592040838891559e-15" r="1" stroke="none" fill="#cccccc"/></g></g><g id="19"><path d="M6,-3.6739403974420594e-16C5.539803855513837,8.385485560821085,3.37799356905764,21.38086756918081,2.6942229581241772e-15,22C-3.6894863885410523,22.676224104490814,-14.998726312095403,8.657911853912573,-16,2.9391523179536475e-15C-17.23269917142673,-10.659024498025765,-3.6736618100077862,-38.44654717310208,0,-38C3.5485617913367715,-37.568659196613375,6.597733461750028,-10.89162821718332,6,-3.6739403974420594e-16" stroke="#cccccc" fill="#cccccc" fill-opacity="0.5"/><g id="dots"><circle cx="2.326828918379971e-15" cy="-38" r="1" stroke="none" fill="#cccccc"/><circle cx="6" cy="0" r="1" stroke="none" fill="#cccccc"/><circle cx="1.3471114790620886e-15" cy="22" r="1" stroke="none" fill="#cccccc"/><circle cx="-16" cy="1.959434878635765e-15" r="1" stroke="none" fill="#cccccc"/></g></g><g id="20"><path d="M5,-3.061616997868383e-16C4.661264712195989,6.754739642808854,2.770938398483601,17.50358752168241,2.204364238465236e-15,18C-3.020871445289424,18.54118788120862,-12.288708683501405,6.946986071640547,-13,2.3880612583373385e-15C-13.850973665453903,-8.311225041157735,-3.007664586611298,-29.378973404748752,0,-29C2.894199951144847,-28.63532342855265,5.425141556252868,-8.477771957104872,5,-3.061616997868383e-16" stroke="#cccccc" fill="#cccccc" fill-opacity="0.5"/><g id="dots"><circle cx="1.7757378587636622e-15" cy="-29" r="1" stroke="none" fill="#cccccc"/><circle cx="5" cy="0" r="1" stroke="none" fill="#cccccc"/><circle cx="1.102182119232618e-15" cy="18" r="1" stroke="none" fill="#cccccc"/><circle cx="-13" cy="1.592040838891559e-15" r="1" stroke="none" fill="#cccccc"/></g></g><g id="21"><path d="M4,-2.4492935982947064e-16C3.6171310784190194,7.455379602749894,2.8190495101121353,18.338758841591652,2.326828918379971e-15,19C-3.147688662331425,19.738327329804886,-13.848844136404738,7.819603924771388,-15,2.7554552980815444e-15C-16.495456587481574,-10.158379564930613,-3.159064028579683,-38.43082745252966,0,-38C3.055150142806959,-37.583344135727145,4.537097327505534,-10.458577947882075,4,-2.4492935982947064e-16" stroke="#cccccc" fill="#cccccc" fill-opacity="0.5"/><g id="dots"><circle cx="2.326828918379971e-15" cy="-38" r="1" stroke="none" fill="#cccccc"/><circle cx="4" cy="0" r="1" stroke="none" fill="#cccccc"/><circle cx="1.1634144591899855e-15" cy="19" r="1" stroke="none" fill="#cccccc"/><circle cx="-15" cy="1.83697019872103e-15" r="1" stroke="none" fill="#cccccc"/></g></g><g id="22"><path d="M8,-4.898587196589413e-16C7.319418610634575,13.871878898585296,5.377806512934133,34.790712940719914,4.408728476930472e-15,36C-5.980483264612179,37.34480870643871,-26.110760359588827,14.461094978055733,-28,5.143516556418883e-15C-30.368710556030415,-18.13118229872848,-5.98935930790915,-66.84588010201475,0,-66C5.767600293165377,-65.18543903052861,8.9137994857102,-18.625422324845832,8,-4.898587196589413e-16" stroke="#cccccc" fill="#cccccc" fill-opacity="0.5"/><g id="dots"><circle cx="4.0413344371862654e-15" cy="-66" r="1" stroke="none" fill="#cccccc"/><circle cx="8" cy="0" r="1" stroke="none" fill="#cccccc"/><circle cx="2.204364238465236e-15" cy="36" r="1" stroke="none" fill="#cccccc"/><circle cx="-28" cy="3.429011037612589e-15" r="1" stroke="none" fill="#cccccc"/></g></g><g id="23"><path d="M5,-3.061616997868383e-16C4.558710747816897,7.388101139913391,3.1148640836792447,18.29925331525698,2.326828918379971e-15,19C-3.5023824329281816,19.78792615428589,-14.901604989669309,7.747570437955884,-16,2.9391523179536475e-15C-17.38328029240581,-9.757019469365298,-3.498023140971434,-36.49333745789679,0,-36C3.3598930496450166,-35.52614347329426,5.600208620037125,-10.04874233384267,5,-3.061616997868383e-16" stroke="#cccccc" fill="#cccccc" fill-opacity="0.5"/><g id="dots"><circle cx="2.204364238465236e-15" cy="-36" r="1" stroke="none" fill="#cccccc"/><circle cx="5" cy="0" r="1" stroke="none" fill="#cccccc"/><circle cx="1.1634144591899855e-15" cy="19" r="1" stroke="none" fill="#cccccc"/><circle cx="-16" cy="1.959434878635765e-15" r="1" stroke="none" fill="#cccccc"/></g></g><g id="24"><path d="M3,-1.8369701987210297e-16C2.680742207368983,6.38990485076861,2.439004643053327,15.333535423803074,1.959434878635765e-15,16C-2.787313172897706,16.761640818435602,-12.83796894932284,6.803697130266056,-14,2.5717582782094417e-15C-15.547325361040608,-9.05959708423031,-2.8192701485473073,-35.41888610872446,0,-35C2.7215540470237847,-34.59563251324869,3.468984865599749,-9.386673518401508,3,-1.8369701987210297e-16" stroke="#cccccc" fill="#cccccc" fill-opacity="0.5"/><g id="dots"><circle cx="2.1431318985078682e-15" cy="-35" r="1" stroke="none" fill="#cccccc"/><circle cx="3" cy="0" r="1" stroke="none" fill="#cccccc"/><circle cx="9.797174393178826e-16" cy="16" r="1" stroke="none" fill="#cccccc"/><circle cx="-14" cy="1.7145055188062944e-15" r="1" stroke="none" fill="#cccccc"/></g></g><g id="25"><path d="M5,-3.061616997868383e-16C4.5596538143791845,5.495576491034348,2.677066068504977,13.449866636671874,1.7145055188062944e-15,14C-3.034829082088233,14.623653166314117,-12.126667708278605,5.7852425330589865,-13,2.3880612583373385e-15C-14.093768436852734,-7.245484613566183,-3.0089072601979345,-27.401967749388643,0,-27C2.8802657128389204,-26.615217809619374,5.598465344672481,-7.468923738362859,5,-3.061616997868383e-16" stroke="#cccccc" fill="#cccccc" fill-opacity="0.5"/><g id="dots"><circle cx="1.6532731788489269e-15" cy="-27" r="1" stroke="none" fill="#cccccc"/><circle cx="5" cy="0" r="1" stroke="none" fill="#cccccc"/><circle cx="8.572527594031472e-16" cy="14" r="1" stroke="none" fill="#cccccc"/><circle cx="-13" cy="1.592040838891559e-15" r="1" stroke="none" fill="#cccccc"/></g></g><g id="26"><path d="M1,-6.123233995736766e-17C0.8861050624917924,2.4256153667268494,0.9568836676491251,5.693352224341077,7.347880794884119e-16,6C-1.1301649519744414,6.362178371694933,-5.492763898988925,2.6338652525641617,-6,1.102182119232618e-15C-6.679593204732017,-3.5288437164753512,-1.1567315462946717,-14.194743004642277,0,-14C1.1103940861502615,-13.813058197153355,1.1730097370911217,-3.684580597371642,1,-6.123233995736766e-17" stroke="#cccccc" fill="#cccccc" fill-opacity="0.5"/><g id="dots"><circle cx="8.572527594031472e-16" cy="-14" r="1" stroke="none" fill="#cccccc"/><circle cx="1" cy="0" r="1" stroke="none" fill="#cccccc"/><circle cx="3.6739403974420594e-16" cy="6" r="1" stroke="none" fill="#cccccc"/><circle cx="-6" cy="7.347880794884119e-16" r="1" stroke="none" fill="#cccccc"/></g></g><g id="27"><path d="M3,-1.8369701987210297e-16C2.688314159675751,5.185792102525168,2.149681877476432,12.429725547240297,1.592040838891559e-15,13C-2.4754563857133163,13.65669695152773,-11.048309655141486,5.535385929495939,-12,2.204364238465236e-15C-13.248810590162103,-7.263548071843135,-2.490963337738295,-28.3741236302232,0,-28C2.3949620626189554,-27.640295026611124,3.4528249723513995,-7.534048267971238,3,-1.8369701987210297e-16" stroke="#cccccc" fill="#cccccc" fill-opacity="0.5"/><g id="dots"><circle cx="1.7145055188062944e-15" cy="-28" r="1" stroke="none" fill="#cccccc"/><circle cx="3" cy="0" r="1" stroke="none" fill="#cccccc"/><circle cx="7.960204194457795e-16" cy="13" r="1" stroke="none" fill="#cccccc"/><circle cx="-12" cy="1.4695761589768238e-15" r="1" stroke="none" fill="#cccccc"/></g></g><g id="28"><path d="M4,-2.4492935982947064e-16C3.6107704822419397,4.39706886205163,2.2778734927563584,10.442472084925312,1.3471114790620886e-15,11C-2.6863396824913996,11.657503310488728,-11.168602012842566,4.730360835280597,-12,2.204364238465236e-15C-13.049545488878334,-5.971543054139465,-2.668570325330897,-23.415191449816508,0,-23C2.531477151169412,-22.606138291131202,4.549698753232823,-6.209866315563122,4,-2.4492935982947064e-16" stroke="#cccccc" fill="#cccccc" fill-opacity="0.5"/><g id="dots"><circle cx="1.4083438190194562e-15" cy="-23" r="1" stroke="none" fill="#cccccc"/><circle cx="4" cy="0" r="1" stroke="none" fill="#cccccc"/><circle cx="6.735557395310443e-16" cy="11" r="1" stroke="none" fill="#cccccc"/><circle cx="-12" cy="1.4695761589768238e-15" r="1" stroke="none" fill="#cccccc"/></g></g><g id="29"><path d="M7,-4.286263797015736e-16C6.4969883739162295,4.35367616373713,2.9220257612785008,10.614831699030676,1.3471114790620886e-15,11C-3.2650006990767895,11.430377715553346,-11.34173290376106,4.532803327184159,-12,2.204364238465236e-15C-12.787935020776882,-5.425691948129748,-3.2053968481344524,-20.327675600253553,0,-20C3.0552282838606044,-19.687675564288302,7.641249999684034,-5.550159666003199,7,-4.286263797015736e-16" stroke="#cccccc" fill="#cccccc" fill-opacity="0.5"/><g id="dots"><circle cx="1.2246467991473533e-15" cy="-20" r="1" stroke="none" fill="#cccccc"/><circle cx="7" cy="0" r="1" stroke="none" fill="#cccccc"/><circle cx="6.735557395310443e-16" cy="11" r="1" stroke="none" fill="#cccccc"/><circle cx="-12" cy="1.4695761589768238e-15" r="1" stroke="none" fill="#cccccc"/></g></g><g id="30"><path d="M6,-3.6739403974420594e-16C5.444766812803578,4.847148540993649,2.825563251274165,11.483309251268597,1.4695761589768238e-15,12C-3.2446883666675412,12.593333191468112,-12.100293200470938,5.150793792115879,-13,2.3880612583373385e-15C-14.13545530541621,-6.500446747122685,-3.1879092751250697,-25.390824513254934,0,-25C3.045097428679756,-24.62668362940444,6.768612875484021,-6.7099389299893035,6,-3.6739403974420594e-16" stroke="#cccccc" fill="#cccccc" fill-opacity="0.5"/><g id="dots"><circle cx="1.5308084989341915e-15" cy="-25" r="1" stroke="none" fill="#cccccc"/><circle cx="6" cy="0" r="1" stroke="none" fill="#cccccc"/><circle cx="7.347880794884119e-16" cy="12" r="1" stroke="none" fill="#cccccc"/><circle cx="-13" cy="1.592040838891559e-15" r="1" stroke="none" fill="#cccccc"/></g></g><g id="31"><path d="M2,-1.2246467991473532e-16C1.7722101249835849,4.8512307334537,1.8272397134657339,11.45791211882441,1.4695761589768238e-15,12C-2.113691326645906,12.627069587135583,-10.030580553151133,5.214591518528003,-11,2.0206672185931327e-15C-12.317839145652842,-7.088771381720401,-2.152653815169239,-28.32867409515707,0,-28C2.0794266364360814,-27.682506465572864,2.3460194741822433,-7.369161194743284,2,-1.2246467991473532e-16" stroke="#cccccc" fill="#cccccc" fill-opacity="0.5"/><g id="dots"><circle cx="1.7145055188062944e-15" cy="-28" r="1" stroke="none" fill="#cccccc"/><circle cx="2" cy="0" r="1" stroke="none" fill="#cccccc"/><circle cx="7.347880794884119e-16" cy="12" r="1" stroke="none" fill="#cccccc"/><circle cx="-11" cy="1.3471114790620886e-15" r="1" stroke="none" fill="#cccccc"/></g></g><g id="32"><path d="M3,-1.8369701987210297e-16C2.6627573623665466,4.871210826937466,2.1122054114599402,11.414952970348288,1.4695761589768238e-15,12C-2.474066764374228,12.685276821943514,-10.985527797977852,5.267730505128324,-12,2.204364238465236e-15C-13.359186409464035,-7.057687432950703,-2.490963337738295,-28.3741236302232,0,-28C2.3949620626189554,-27.640295026611124,3.508847817894082,-7.349915826726623,3,-1.8369701987210297e-16" stroke="#cccccc" fill="#cccccc" fill-opacity="0.5"/><g id="dots"><circle cx="1.7145055188062944e-15" cy="-28" r="1" stroke="none" fill="#cccccc"/><circle cx="3" cy="0" r="1" stroke="none" fill="#cccccc"/><circle cx="7.347880794884119e-16" cy="12" r="1" stroke="none" fill="#cccccc"/><circle cx="-12" cy="1.4695761589768238e-15" r="1" stroke="none" fill="#cccccc"/></g></g><g id="33"><path d="M9,-5.51091059616309e-16C8.15992265977543,6.911162421647136,4.248499679666528,16.184244171711246,2.0818995585505003e-15,17C-4.9629507365178975,17.952937811953003,-18.655728112624566,7.4040802371259575,-20,3.673940397442059e-15C-21.683793283687287,-9.274121323399125,-4.867890265828481,-36.641663413047354,0,-36C4.620806715171077,-35.3909060299279,10.166815862256723,-9.599180401717291,9,-5.51091059616309e-16" stroke="#cccccc" fill="#cccccc" fill-opacity="0.5"/><g id="dots"><circle cx="2.204364238465236e-15" cy="-36" r="1" stroke="none" fill="#cccccc"/><circle cx="9" cy="0" r="1" stroke="none" fill="#cccccc"/><circle cx="1.0409497792752501e-15" cy="17" r="1" stroke="none" fill="#cccccc"/><circle cx="-20" cy="2.4492935982947065e-15" r="1" stroke="none" fill="#cccccc"/></g></g><g id="34"><path d="M2,-1.2246467991473532e-16C1.7537276064960858,6.970631926568593,2.4657783438268366,16.185608778976857,2.0818995585505003e-15,17C-2.879627116159917,17.951076178072515,-14.471054888575484,7.5641835865394915,-16,2.9391523179536475e-15C-18.14341267293327,-10.604152391498719,-2.973781915897356,-43.46426964875377,0,-43C2.8804805422062745,-42.55029665005929,2.390541941578054,-11.054118116510708,2,-1.2246467991473532e-16" stroke="#cccccc" fill="#cccccc" fill-opacity="0.5"/><g id="dots"><circle cx="2.6329906181668092e-15" cy="-43" r="1" stroke="none" fill="#cccccc"/><circle cx="2" cy="0" r="1" stroke="none" fill="#cccccc"/><circle cx="1.0409497792752501e-15" cy="17" r="1" stroke="none" fill="#cccccc"/><circle cx="-16" cy="1.959434878635765e-15" r="1" stroke="none" fill="#cccccc"/></g></g><g id="35"><path d="M4,-2.4492935982947064e-16C3.5680831233644685,6.8351258353608015,2.761343607441708,16.306830177976018,2.0818995585505003e-15,17C-3.1461995984491606,17.789778790959446,-13.724746321427995,7.275871037480772,-15,2.7554552980815444e-15C-16.711866485021584,-9.766934993161279,-3.159064028579683,-38.43082745252966,0,-38C3.055150142806959,-37.583344135727145,4.6388713724586905,-10.110200502884418,4,-2.4492935982947064e-16" stroke="#cccccc" fill="#cccccc" fill-opacity="0.5"/><g id="dots"><circle cx="2.326828918379971e-15" cy="-38" r="1" stroke="none" fill="#cccccc"/><circle cx="4" cy="0" r="1" stroke="none" fill="#cccccc"/><circle cx="1.0409497792752501e-15" cy="17" r="1" stroke="none" fill="#cccccc"/><circle cx="-15" cy="1.83697019872103e-15" r="1" stroke="none" fill="#cccccc"/></g></g><g id="36"><path d="M2,-1.2246467991473532e-16C1.7377407663240114,5.00914484258548,1.9137673352982507,11.386704448682156,1.4695761589768238e-15,12C-2.260329903948883,12.724356743389865,-10.780784564583575,5.495691144629483,-12,2.204364238465236e-15C-13.753771868478424,-7.905238276453773,-2.318576179060151,-33.336484898213584,0,-33C2.2497571512383585,-32.67350250861864,2.4323350038953317,-8.257587825132697,2,-1.2246467991473532e-16" stroke="#cccccc" fill="#cccccc" fill-opacity="0.5"/><g id="dots"><circle cx="2.0206672185931327e-15" cy="-33" r="1" stroke="none" fill="#cccccc"/><circle cx="2" cy="0" r="1" stroke="none" fill="#cccccc"/><circle cx="7.347880794884119e-16" cy="12" r="1" stroke="none" fill="#cccccc"/><circle cx="-12" cy="1.4695761589768238e-15" r="1" stroke="none" fill="#cccccc"/></g></g><g id="37"><path d="M3,-1.8369701987210297e-16C2.713050302458227,5.4943590986756945,2.0817765878758,13.518188485963405,1.7145055188062944e-15,14C-2.3214560733318224,14.537283525991974,-10.154145065101968,5.759593595111336,-11,2.0206672185931327e-15C-12.09949489350766,-7.48667825324888,-2.3283836573475103,-28.313407800949633,0,-28C2.2527380489852202,-27.69677433707281,3.4024256024470074,-7.70542986902046,3,-1.8369701987210297e-16" stroke="#cccccc" fill="#cccccc" fill-opacity="0.5"/><g id="dots"><circle cx="1.7145055188062944e-15" cy="-28" r="1" stroke="none" fill="#cccccc"/><circle cx="3" cy="0" r="1" stroke="none" fill="#cccccc"/><circle cx="8.572527594031472e-16" cy="14" r="1" stroke="none" fill="#cccccc"/><circle cx="-11" cy="1.3471114790620886e-15" r="1" stroke="none" fill="#cccccc"/></g></g><g id="38"><path d="M1,-6.123233995736766e-17C0.8754281654255155,1.2580533882117697,0.5789009592784408,2.8633400213704503,3.6739403974420594e-16,3C-0.6705364571880996,3.1582921852882695,-2.704672642552143,1.3634109938458148,-3,5.51091059616309e-16C-3.419098656048654,-1.9348147090085543,-0.6668090538620797,-8.078515115622247,0,-8C0.6477376064629607,-7.923730500103803,1.19890614459579,-2.008757035646392,1,-6.123233995736766e-17" stroke="#cccccc" fill="#cccccc" fill-opacity="0.5"/><g id="dots"><circle cx="4.898587196589413e-16" cy="-8" r="1" stroke="none" fill="#cccccc"/><circle cx="1" cy="0" r="1" stroke="none" fill="#cccccc"/><circle cx="1.8369701987210297e-16" cy="3" r="1" stroke="none" fill="#cccccc"/><circle cx="-3" cy="3.6739403974420594e-16" r="1" stroke="none" fill="#cccccc"/></g></g><g id="39"><path d="M1,-6.123233995736766e-17C0.8687687616161979,0.8727359794228859,0.45543461277216674,1.926093136679641,2.4492935982947064e-16,2C-0.512219407367707,2.0831217669204656,-1.7791602033176146,0.935492390883817,-2,3.6739403974420594e-16C-2.3302325208141474,-1.3988874065498407,-0.5016880788837811,-6.03936312589992,0,-6C0.4920046582311315,-5.961396648394778,1.2164438035086065,-1.439430863958181,1,-6.123233995736766e-17" stroke="#cccccc" fill="#cccccc" fill-opacity="0.5"/><g id="dots"><circle cx="3.6739403974420594e-16" cy="-6" r="1" stroke="none" fill="#cccccc"/><circle cx="1" cy="0" r="1" stroke="none" fill="#cccccc"/><circle cx="1.2246467991473532e-16" cy="2" r="1" stroke="none" fill="#cccccc"/><circle cx="-2" cy="2.4492935982947064e-16" r="1" stroke="none" fill="#cccccc"/></g></g><g id="40"><path d="M7,-4.286263797015736e-16C6.464169264643033,5.8412282092907,3.212604044919246,14.490938637662817,1.83697019872103e-15,15C-3.5767623476048573,15.566764994368874,-13.166360274018155,6.078817823482254,-14,2.5717582782094417e-15C-15.014946876567882,-7.400891501304065,-3.527466639509074,-27.397948123080777,0,-27C3.3780990637320616,-26.61890265185323,7.695560449948991,-7.5824827756516955,7,-4.286263797015736e-16" stroke="#cccccc" fill="#cccccc" fill-opacity="0.5"/><g id="dots"><circle cx="1.6532731788489269e-15" cy="-27" r="1" stroke="none" fill="#cccccc"/><circle cx="7" cy="0" r="1" stroke="none" fill="#cccccc"/><circle cx="9.18485099360515e-16" cy="15" r="1" stroke="none" fill="#cccccc"/><circle cx="-14" cy="1.7145055188062944e-15" r="1" stroke="none" fill="#cccccc"/></g></g><g id="41"><path d="M8,-4.898587196589413e-16C7.423386163005159,5.486017634809359,3.295985042391514,13.620564506136187,1.7145055188062944e-15,14C-3.587691661866841,14.413016909980824,-12.234792716198246,5.657932174898399,-13,2.3880612583373385e-15C-13.929310843781124,-6.871311649554824,-3.534208599044484,-25.30080642311951,0,-25C3.411079639214726,-24.70967342857878,8.735692838393154,-6.999526591769783,8,-4.898587196589413e-16" stroke="#cccccc" fill="#cccccc" fill-opacity="0.5"/><g id="dots"><circle cx="1.5308084989341915e-15" cy="-25" r="1" stroke="none" fill="#cccccc"/><circle cx="8" cy="0" r="1" stroke="none" fill="#cccccc"/><circle cx="8.572527594031472e-16" cy="14" r="1" stroke="none" fill="#cccccc"/><circle cx="-13" cy="1.592040838891559e-15" r="1" stroke="none" fill="#cccccc"/></g></g><g id="42"><path d="M4,-2.4492935982947064e-16C3.6439425043257847,5.0839204302492655,2.3489480481335976,12.466188507396309,1.592040838891559e-15,13C-2.6789620646820387,13.608809011128567,-11.194953125057978,5.364792152823689,-12,2.204364238465236e-15C-13.007898198728546,-6.716583239669695,-2.6680794355174955,-25.388059156267477,0,-25C2.5493629970776377,-24.629207571372923,4.485782323957562,-6.936179441315631,4,-2.4492935982947064e-16" stroke="#cccccc" fill="#cccccc" fill-opacity="0.5"/><g id="dots"><circle cx="1.5308084989341915e-15" cy="-25" r="1" stroke="none" fill="#cccccc"/><circle cx="4" cy="0" r="1" stroke="none" fill="#cccccc"/><circle cx="7.960204194457795e-16" cy="13" r="1" stroke="none" fill="#cccccc"/><circle cx="-12" cy="1.4695761589768238e-15" r="1" stroke="none" fill="#cccccc"/></g></g><g id="43"><path d="M2,-1.2246467991473532e-16C1.7831831089521841,3.2234734994403174,1.4081369409732933,7.609968646898859,9.797174393178826e-16,8C-1.6493778429161516,8.45685121462901,-7.354319278669812,3.4774282334143303,-8,1.4695761589768238e-15C-8.85196795200564,-4.588424762265053,-1.6602684145861515,-18.257353937350363,0,-18C1.5919845013170364,-17.753230576444583,2.3213174750015817,-4.777111047802332,2,-1.2246467991473532e-16" stroke="#cccccc" fill="#cccccc" fill-opacity="0.5"/><g id="dots"><circle cx="1.102182119232618e-15" cy="-18" r="1" stroke="none" fill="#cccccc"/><circle cx="2" cy="0" r="1" stroke="none" fill="#cccccc"/><circle cx="4.898587196589413e-16" cy="8" r="1" stroke="none" fill="#cccccc"/><circle cx="-8" cy="9.797174393178826e-16" r="1" stroke="none" fill="#cccccc"/></g></g><g id="44"><path d="M3,-1.8369701987210297e-16C2.747354666615934,3.124358070821862,1.5161550811916475,7.724059508129836,9.797174393178826e-16,8C-1.6911515250612925,8.30778987548267,-6.53652522073171,3.262864553229877,-7,1.2858791391047208e-15C-7.578354522739153,-4.071618469563773,-1.6740347774721613,-15.201201518733276,0,-15C1.6092769828690119,-14.80658169270254,3.3380527943018774,-4.180556047062819,3,-1.8369701987210297e-16" stroke="#cccccc" fill="#cccccc" fill-opacity="0.5"/><g id="dots"><circle cx="9.18485099360515e-16" cy="-15" r="1" stroke="none" fill="#cccccc"/><circle cx="3" cy="0" r="1" stroke="none" fill="#cccccc"/><circle cx="4.898587196589413e-16" cy="8" r="1" stroke="none" fill="#cccccc"/><circle cx="-7" cy="8.572527594031472e-16" r="1" stroke="none" fill="#cccccc"/></g></g><g id="45"><path d="M5,-3.061616997868383e-16C4.511463301722096,7.516136312493019,3.1148640836792447,18.29925331525698,2.326828918379971e-15,19C-3.5023824329281816,19.78792615428589,-14.760669717804241,7.916592065825132,-16,2.9391523179536475e-15C-17.61449843160411,-10.313090592185917,-3.4981268241626378,-39.460550969412935,0,-39C3.3784388779813543,-38.55520672103443,5.691118851323958,-10.632862409303707,5,-3.061616997868383e-16" stroke="#cccccc" fill="#cccccc" fill-opacity="0.5"/><g id="dots"><circle cx="2.388061258337339e-15" cy="-39" r="1" stroke="none" fill="#cccccc"/><circle cx="5" cy="0" r="1" stroke="none" fill="#cccccc"/><circle cx="1.1634144591899855e-15" cy="19" r="1" stroke="none" fill="#cccccc"/><circle cx="-16" cy="1.959434878635765e-15" r="1" stroke="none" fill="#cccccc"/></g></g><g id="46"><path d="M2,-1.2246467991473532e-16C1.829315638309645,2.7132397972367,1.1892009687748615,6.740104512255159,8.572527594031472e-16,7C-1.3382616056605816,7.2924721404252395,-5.604893661544944,2.8426121737029155,-6,1.102182119232618e-15C-6.492376969169045,-3.5424305570083496,-1.3339462443687151,-13.187817926671467,0,-13C1.2785313724698584,-12.819984416481978,2.2294226493940577,-3.6469577913218596,2,-1.2246467991473532e-16" stroke="#cccccc" fill="#cccccc" fill-opacity="0.5"/><g id="dots"><circle cx="7.960204194457795e-16" cy="-13" r="1" stroke="none" fill="#cccccc"/><circle cx="2" cy="0" r="1" stroke="none" fill="#cccccc"/><circle cx="4.286263797015736e-16" cy="7" r="1" stroke="none" fill="#cccccc"/><circle cx="-6" cy="7.347880794884119e-16" r="1" stroke="none" fill="#cccccc"/></g></g><g id="47"><path d="M1,-6.123233995736766e-17C0.8703244525689003,1.6772826281954438,0.7040684704866467,3.80498432344943,4.898587196589413e-16,4C-0.824688921458076,4.228425607314506,-3.5935948548611925,1.831897048209828,-4,7.347880794884119e-16C-4.584590622826142,-2.635079425484591,-0.8310597815034625,-11.107852322159989,0,-11C0.8073132517988169,-10.895229427707937,1.212244193294842,-2.7452631232418283,1,-6.123233995736766e-17" stroke="#cccccc" fill="#cccccc" fill-opacity="0.5"/><g id="dots"><circle cx="6.735557395310443e-16" cy="-11" r="1" stroke="none" fill="#cccccc"/><circle cx="1" cy="0" r="1" stroke="none" fill="#cccccc"/><circle cx="2.4492935982947064e-16" cy="4" r="1" stroke="none" fill="#cccccc"/><circle cx="-4" cy="4.898587196589413e-16" r="1" stroke="none" fill="#cccccc"/></g></g><g id="48"><path d="M1,-6.123233995736766e-17C0.8703244525689003,1.6772826281954438,0.7040684704866467,3.80498432344943,4.898587196589413e-16,4C-0.824688921458076,4.228425607314506,-3.5935948548611925,1.831897048209828,-4,7.347880794884119e-16C-4.584590622826142,-2.635079425484591,-0.8310597815034625,-11.107852322159989,0,-11C0.8073132517988169,-10.895229427707937,1.212244193294842,-2.7452631232418283,1,-6.123233995736766e-17" stroke="#cccccc" fill="#cccccc" fill-opacity="0.5"/><g id="dots"><circle cx="6.735557395310443e-16" cy="-11" r="1" stroke="none" fill="#cccccc"/><circle cx="1" cy="0" r="1" stroke="none" fill="#cccccc"/><circle cx="2.4492935982947064e-16" cy="4" r="1" stroke="none" fill="#cccccc"/><circle cx="-4" cy="4.898587196589413e-16" r="1" stroke="none" fill="#cccccc"/></g></g><g id="49"><path d="M0,0C2.3912716194123994e-17,0.39052429175126996,1.2246467991473532e-16,1,1.2246467991473532e-16,1C1.2246467991473532e-16,1,2.3912716194123994e-17,0.39052429175126996,0,0C-3.3817687554908895e-17,-0.5522847498307935,0,-1.9999999999999998,0,-2C0,-1.9999999999999998,-3.3817687554908895e-17,-0.5522847498307935,0,0" stroke="#cccccc" fill="#cccccc" fill-opacity="0.5"/><g id="dots"><circle cx="1.2246467991473532e-16" cy="-2" r="1" stroke="none" fill="#cccccc"/><circle cx="0" cy="0" r="1" stroke="none" fill="#cccccc"/><circle cx="6.123233995736766e-17" cy="1" r="1" stroke="none" fill="#cccccc"/><circle cx="0" cy="0" r="1" stroke="none" fill="#cccccc"/></g></g><g id="50"><path d="M1,-6.123233995736766e-17C0.8801729360685953,1.6463579277735425,0.7040684704866467,3.80498432344943,4.898587196589413e-16,4C-0.824688921458076,4.228425607314506,-3.6329661200811554,1.7881613036862487,-4,7.347880794884119e-16C-4.50644601404793,-2.4673666772312344,-0.8306520410887912,-10.117411919026843,0,-10C0.802389030331595,-9.886583032127588,1.187078134781183,-2.5703506387038084,1,-6.123233995736766e-17" stroke="#cccccc" fill="#cccccc" fill-opacity="0.5"/><g id="dots"><circle cx="6.123233995736766e-16" cy="-10" r="1" stroke="none" fill="#cccccc"/><circle cx="1" cy="0" r="1" stroke="none" fill="#cccccc"/><circle cx="2.4492935982947064e-16" cy="4" r="1" stroke="none" fill="#cccccc"/><circle cx="-4" cy="4.898587196589413e-16" r="1" stroke="none" fill="#cccccc"/></g></g><g id="51"><path d="M2,-1.2246467991473532e-16C1.7956208998421004,2.411476847597031,1.0612767200292585,5.799751460817761,7.347880794884119e-16,6C-1.1793591983495768,6.2225291030921035,-4.581379859760704,2.533060780854138,-5,9.184850993605148e-16C-5.559033833241283,-3.382700787746564,-1.169330689502838,-13.125908280959226,0,-13C1.13631421950124,-12.877646784360246,2.2947358815370937,-3.4775999793212375,2,-1.2246467991473532e-16" stroke="#cccccc" fill="#cccccc" fill-opacity="0.5"/><g id="dots"><circle cx="7.960204194457795e-16" cy="-13" r="1" stroke="none" fill="#cccccc"/><circle cx="2" cy="0" r="1" stroke="none" fill="#cccccc"/><circle cx="3.6739403974420594e-16" cy="6" r="1" stroke="none" fill="#cccccc"/><circle cx="-5" cy="6.123233995736766e-16" r="1" stroke="none" fill="#cccccc"/></g></g><g id="52"><path d="M1,-6.123233995736766e-17C0.8835769200716423,2.0357461294225327,0.8301960908026027,4.748636849164633,6.123233995736766e-16,5C-0.9776419940036364,5.296006178208028,-4.56252490734134,2.2114226136135957,-5,9.184850993605148e-16C-5.593174546465245,-2.998478377137532,-0.9938679841567797,-12.15613520107057,0,-12C0.9565309462509989,-11.849730392764556,1.178911290269888,-3.128400029453281,1,-6.123233995736766e-17" stroke="#cccccc" fill="#cccccc" fill-opacity="0.5"/><g id="dots"><circle cx="7.347880794884119e-16" cy="-12" r="1" stroke="none" fill="#cccccc"/><circle cx="1" cy="0" r="1" stroke="none" fill="#cccccc"/><circle cx="3.061616997868383e-16" cy="5" r="1" stroke="none" fill="#cccccc"/><circle cx="-5" cy="6.123233995736766e-16" r="1" stroke="none" fill="#cccccc"/></g></g><g id="53"><path d="M6,-3.6739403974420594e-16C5.568486621759352,7.944789949848364,3.3579103027889308,20.36677409044738,2.5717582782094417e-15,21C-3.69188097231055,21.696205221655177,-15.084081221924793,8.20647070689404,-16,2.9391523179536475e-15C-17.1058278747961,-9.908022718402986,-3.675015282744723,-35.47859238825251,0,-35C3.530198747084177,-34.54026687798936,6.550228956057812,-10.130516689950202,6,-3.6739403974420594e-16" stroke="#cccccc" fill="#cccccc" fill-opacity="0.5"/><g id="dots"><circle cx="2.1431318985078682e-15" cy="-35" r="1" stroke="none" fill="#cccccc"/><circle cx="6" cy="0" r="1" stroke="none" fill="#cccccc"/><circle cx="1.2858791391047208e-15" cy="21" r="1" stroke="none" fill="#cccccc"/><circle cx="-16" cy="1.959434878635765e-15" r="1" stroke="none" fill="#cccccc"/></g></g><g id="54"><path d="M1,-6.123233995736766e-17C0.8943425058233104,2.3895124589152448,0.8665909634687372,5.76501324159578,7.347880794884119e-16,6C-0.9819653961182013,6.266271949542728,-4.581379859760704,2.533060780854138,-5,9.184850993605148e-16C-5.559033833241283,-3.382700787746564,-0.994682690922022,-13.145452540073569,0,-13C0.9623794891054624,-12.859271160056744,1.1546899524166545,-3.498413164621054,1,-6.123233995736766e-17" stroke="#cccccc" fill="#cccccc" fill-opacity="0.5"/><g id="dots"><circle cx="7.960204194457795e-16" cy="-13" r="1" stroke="none" fill="#cccccc"/><circle cx="1" cy="0" r="1" stroke="none" fill="#cccccc"/><circle cx="3.6739403974420594e-16" cy="6" r="1" stroke="none" fill="#cccccc"/><circle cx="-5" cy="6.123233995736766e-16" r="1" stroke="none" fill="#cccccc"/></g></g><g id="55"><path d="M1,-6.123233995736766e-17C0.8754281654255155,1.2580533882117697,0.5789009592784408,2.8633400213704503,3.6739403974420594e-16,3C-0.6705364571880996,3.1582921852882695,-2.704672642552143,1.3634109938458148,-3,5.51091059616309e-16C-3.419098656048654,-1.9348147090085543,-0.6668090538620797,-8.078515115622247,0,-8C0.6477376064629607,-7.923730500103803,1.19890614459579,-2.008757035646392,1,-6.123233995736766e-17" stroke="#cccccc" fill="#cccccc" fill-opacity="0.5"/><g id="dots"><circle cx="4.898587196589413e-16" cy="-8" r="1" stroke="none" fill="#cccccc"/><circle cx="1" cy="0" r="1" stroke="none" fill="#cccccc"/><circle cx="1.8369701987210297e-16" cy="3" r="1" stroke="none" fill="#cccccc"/><circle cx="-3" cy="3.6739403974420594e-16" r="1" stroke="none" fill="#cccccc"/></g></g><g id="56"><path d="M2,-1.2246467991473532e-16C1.8177843878630702,1.9846582067310452,1.0337901193487562,4.787806615799065,6.123233995736766e-16,5C-1.1846099567583632,5.243150317436801,-4.658784547945084,2.102664357502262,-5,9.184850993605148e-16C-5.429055716138225,-2.6439604545261326,-1.1712187858334977,-10.156847375349857,0,-10C1.118584665181407,-9.850201285223202,2.2507520081174612,-2.731143752877959,2,-1.2246467991473532e-16" stroke="#cccccc" fill="#cccccc" fill-opacity="0.5"/><g id="dots"><circle cx="6.123233995736766e-16" cy="-10" r="1" stroke="none" fill="#cccccc"/><circle cx="2" cy="0" r="1" stroke="none" fill="#cccccc"/><circle cx="3.061616997868383e-16" cy="5" r="1" stroke="none" fill="#cccccc"/><circle cx="-5" cy="6.123233995736766e-16" r="1" stroke="none" fill="#cccccc"/></g></g><g id="57"><path d="M2,-1.2246467991473532e-16C1.8140158318752095,2.3703920325472754,1.1578019185568813,5.7266800427409,7.347880794884119e-16,6C-1.3410729143761986,6.316584370576536,-5.5905414575341,2.5231972290027134,-6,1.102182119232618e-15C-6.5148668593658705,-3.1727525454313596,-1.3341512729935596,-12.200613161224371,0,-12C1.2704347882438087,-11.808967735399946,2.257944580451009,-3.287536700057008,2,-1.2246467991473532e-16" stroke="#cccccc" fill="#cccccc" fill-opacity="0.5"/><g id="dots"><circle cx="7.347880794884119e-16" cy="-12" r="1" stroke="none" fill="#cccccc"/><circle cx="2" cy="0" r="1" stroke="none" fill="#cccccc"/><circle cx="3.6739403974420594e-16" cy="6" r="1" stroke="none" fill="#cccccc"/><circle cx="-6" cy="7.347880794884119e-16" r="1" stroke="none" fill="#cccccc"/></g></g><g id="58"><path d="M1,-6.123233995736766e-17C0.8895801016588072,1.224575437775367,0.5789009592784408,2.8633400213704503,3.6739403974420594e-16,3C-0.6705364571880996,3.1582921852882695,-2.746381949494463,1.316932626282081,-3,5.51091059616309e-16C-3.339796602366009,-1.7644218582376758,-0.6669004136367563,-7.088204633192122,0,-7C0.6426085350151265,-6.915008224679241,1.1651162604070735,-1.8311673883908381,1,-6.123233995736766e-17" stroke="#cccccc" fill="#cccccc" fill-opacity="0.5"/><g id="dots"><circle cx="4.286263797015736e-16" cy="-7" r="1" stroke="none" fill="#cccccc"/><circle cx="1" cy="0" r="1" stroke="none" fill="#cccccc"/><circle cx="1.8369701987210297e-16" cy="3" r="1" stroke="none" fill="#cccccc"/><circle cx="-3" cy="3.6739403974420594e-16" r="1" stroke="none" fill="#cccccc"/></g></g><g id="59"><path d="M1,-6.123233995736766e-17C0.8786989872549639,2.458959840309727,0.8665909634687372,5.76501324159578,7.347880794884119e-16,6C-0.9819653961182013,6.266271949542728,-4.504709021963704,2.624941918562894,-5,9.184850993605148e-16C-5.7047140993330885,-3.734842066527923,-0.9959024252872442,-15.127762437894276,0,-15C0.9710886935084038,-14.875420868808087,1.1906957901645672,-3.8656997095021315,1,-6.123233995736766e-17" stroke="#cccccc" fill="#cccccc" fill-opacity="0.5"/><g id="dots"><circle cx="9.18485099360515e-16" cy="-15" r="1" stroke="none" fill="#cccccc"/><circle cx="1" cy="0" r="1" stroke="none" fill="#cccccc"/><circle cx="3.6739403974420594e-16" cy="6" r="1" stroke="none" fill="#cccccc"/><circle cx="-5" cy="6.123233995736766e-16" r="1" stroke="none" fill="#cccccc"/></g></g><g id="60"><path d="M2,-1.2246467991473532e-16C1.811655171545663,2.757318530691237,1.1892009687748615,6.740104512255159,8.572527594031472e-16,7C-1.3382616056605816,7.2924721404252395,-5.556011243711791,2.9010216609625274,-6,1.102182119232618e-15C-6.570675511610181,-3.7287926712435286,-1.3338008272735125,-14.176409266384242,0,-14C1.285217070030253,-13.830016449358485,2.262507811558083,-3.8430450105816942,2,-1.2246467991473532e-16" stroke="#cccccc" fill="#cccccc" fill-opacity="0.5"/><g id="dots"><circle cx="8.572527594031472e-16" cy="-14" r="1" stroke="none" fill="#cccccc"/><circle cx="2" cy="0" r="1" stroke="none" fill="#cccccc"/><circle cx="4.286263797015736e-16" cy="7" r="1" stroke="none" fill="#cccccc"/><circle cx="-6" cy="7.347880794884119e-16" r="1" stroke="none" fill="#cccccc"/></g></g><g id="61"><path d="M1,-6.123233995736766e-17C0.8754281654255155,1.2580533882117697,0.47406772900442923,2.93651375820488,3.6739403974420594e-16,3C-0.5062047672563046,3.067789972372441,-1.774159485056866,1.303825566055663,-2,3.6739403974420594e-16C-2.3415413144314714,-1.9717910124856748,-0.500961325742762,-8.03025058437026,0,-8C0.49534217934707936,-7.970088728174235,1.19890614459579,-2.008757035646392,1,-6.123233995736766e-17" stroke="#cccccc" fill="#cccccc" fill-opacity="0.5"/><g id="dots"><circle cx="4.898587196589413e-16" cy="-8" r="1" stroke="none" fill="#cccccc"/><circle cx="1" cy="0" r="1" stroke="none" fill="#cccccc"/><circle cx="1.8369701987210297e-16" cy="3" r="1" stroke="none" fill="#cccccc"/><circle cx="-2" cy="2.4492935982947064e-16" r="1" stroke="none" fill="#cccccc"/></g></g><g id="62"><path d="M2,-1.2246467991473532e-16C1.768104568682398,2.8710440960923806,1.1892009687748615,6.740104512255159,8.572527594031472e-16,7C-1.3382616056605816,7.2924721404252395,-5.430256357380395,3.050100763751663,-6,1.102182119232618e-15C-6.796701430033322,-4.265110583864999,-1.3335600762647475,-17.14876024411942,0,-17C1.2994472371668797,-16.855045084460915,2.3555822962565904,-4.402382774606067,2,-1.2246467991473532e-16" stroke="#cccccc" fill="#cccccc" fill-opacity="0.5"/><g id="dots"><circle cx="1.0409497792752501e-15" cy="-17" r="1" stroke="none" fill="#cccccc"/><circle cx="2" cy="0" r="1" stroke="none" fill="#cccccc"/><circle cx="4.286263797015736e-16" cy="7" r="1" stroke="none" fill="#cccccc"/><circle cx="-6" cy="7.347880794884119e-16" r="1" stroke="none" fill="#cccccc"/></g></g><g id="63"><path d="M1,-6.123233995736766e-17C0.8835769200716423,2.0357461294225327,0.8301960908026027,4.748636849164633,6.123233995736766e-16,5C-0.9776419940036364,5.296006178208028,-4.56252490734134,2.2114226136135957,-5,9.184850993605148e-16C-5.593174546465245,-2.998478377137532,-0.9938679841567797,-12.15613520107057,0,-12C0.9565309462509989,-11.849730392764556,1.178911290269888,-3.128400029453281,1,-6.123233995736766e-17" stroke="#cccccc" fill="#cccccc" fill-opacity="0.5"/><g id="dots"><circle cx="7.347880794884119e-16" cy="-12" r="1" stroke="none" fill="#cccccc"/><circle cx="1" cy="0" r="1" stroke="none" fill="#cccccc"/><circle cx="3.061616997868383e-16" cy="5" r="1" stroke="none" fill="#cccccc"/><circle cx="-5" cy="6.123233995736766e-16" r="1" stroke="none" fill="#cccccc"/></g></g><g id="64"><path d="M1,-6.123233995736766e-17C0.8835769200716423,2.0357461294225327,0.8301960908026027,4.748636849164633,6.123233995736766e-16,5C-0.9776419940036364,5.296006178208028,-4.56252490734134,2.2114226136135957,-5,9.184850993605148e-16C-5.593174546465245,-2.998478377137532,-0.9938679841567797,-12.15613520107057,0,-12C0.9565309462509989,-11.849730392764556,1.178911290269888,-3.128400029453281,1,-6.123233995736766e-17" stroke="#cccccc" fill="#cccccc" fill-opacity="0.5"/><g id="dots"><circle cx="7.347880794884119e-16" cy="-12" r="1" stroke="none" fill="#cccccc"/><circle cx="1" cy="0" r="1" stroke="none" fill="#cccccc"/><circle cx="3.061616997868383e-16" cy="5" r="1" stroke="none" fill="#cccccc"/><circle cx="-5" cy="6.123233995736766e-16" r="1" stroke="none" fill="#cccccc"/></g></g><g id="65"><path d="M1,-6.123233995736766e-17C0.8786989872549639,2.458959840309727,0.8665909634687372,5.76501324159578,7.347880794884119e-16,6C-0.9819653961182013,6.266271949542728,-4.504709021963704,2.624941918562894,-5,9.184850993605148e-16C-5.7047140993330885,-3.734842066527923,-0.9959024252872442,-15.127762437894276,0,-15C0.9710886935084038,-14.875420868808087,1.1906957901645672,-3.8656997095021315,1,-6.123233995736766e-17" stroke="#cccccc" fill="#cccccc" fill-opacity="0.5"/><g id="dots"><circle cx="9.18485099360515e-16" cy="-15" r="1" stroke="none" fill="#cccccc"/><circle cx="1" cy="0" r="1" stroke="none" fill="#cccccc"/><circle cx="3.6739403974420594e-16" cy="6" r="1" stroke="none" fill="#cccccc"/><circle cx="-5" cy="6.123233995736766e-16" r="1" stroke="none" fill="#cccccc"/></g></g><g id="66"><path d="M1,-6.123233995736766e-17C0.8703244525689003,1.6772826281954438,0.7040684704866467,3.80498432344943,4.898587196589413e-16,4C-0.824688921458076,4.228425607314506,-3.5935948548611925,1.831897048209828,-4,7.347880794884119e-16C-4.584590622826142,-2.635079425484591,-0.8310597815034625,-11.107852322159989,0,-11C0.8073132517988169,-10.895229427707937,1.212244193294842,-2.7452631232418283,1,-6.123233995736766e-17" stroke="#cccccc" fill="#cccccc" fill-opacity="0.5"/><g id="dots"><circle cx="6.735557395310443e-16" cy="-11" r="1" stroke="none" fill="#cccccc"/><circle cx="1" cy="0" r="1" stroke="none" fill="#cccccc"/><circle cx="2.4492935982947064e-16" cy="4" r="1" stroke="none" fill="#cccccc"/><circle cx="-4" cy="4.898587196589413e-16" r="1" stroke="none" fill="#cccccc"/></g></g><g id="67"><path d="M1,-6.123233995736766e-17C0.8754281654255155,1.2580533882117697,0.5789009592784408,2.8633400213704503,3.6739403974420594e-16,3C-0.6705364571880996,3.1582921852882695,-2.704672642552143,1.3634109938458148,-3,5.51091059616309e-16C-3.419098656048654,-1.9348147090085543,-0.6668090538620797,-8.078515115622247,0,-8C0.6477376064629607,-7.923730500103803,1.19890614459579,-2.008757035646392,1,-6.123233995736766e-17" stroke="#cccccc" fill="#cccccc" fill-opacity="0.5"/><g id="dots"><circle cx="4.898587196589413e-16" cy="-8" r="1" stroke="none" fill="#cccccc"/><circle cx="1" cy="0" r="1" stroke="none" fill="#cccccc"/><circle cx="1.8369701987210297e-16" cy="3" r="1" stroke="none" fill="#cccccc"/><circle cx="-3" cy="3.6739403974420594e-16" r="1" stroke="none" fill="#cccccc"/></g></g><g id="68"><path d="M1,-6.123233995736766e-17C0.8861050624917924,2.4256153667268494,0.8665909634687372,5.76501324159578,7.347880794884119e-16,6C-0.9819653961182013,6.266271949542728,-4.541378410594401,2.5809813778201933,-5,9.184850993605148e-16C-5.632732445223823,-3.5608237727793846,-0.9953500222742825,-14.136064668037287,0,-14C0.9671510744416104,-13.867790137197042,1.1730097370911217,-3.684580597371642,1,-6.123233995736766e-17" stroke="#cccccc" fill="#cccccc" fill-opacity="0.5"/><g id="dots"><circle cx="8.572527594031472e-16" cy="-14" r="1" stroke="none" fill="#cccccc"/><circle cx="1" cy="0" r="1" stroke="none" fill="#cccccc"/><circle cx="3.6739403974420594e-16" cy="6" r="1" stroke="none" fill="#cccccc"/><circle cx="-5" cy="6.123233995736766e-16" r="1" stroke="none" fill="#cccccc"/></g></g><g id="69"><path d="M1,-6.123233995736766e-17C0.8751204836775127,2.068052877567992,0.737227441390321,4.8206249241314785,6.123233995736766e-16,5C-0.8261408925588155,5.201008639886438,-3.581499554035856,2.198329293937906,-4,7.347880794884119e-16C-4.609948114374765,-3.2039793996470807,-0.8316470553351488,-13.092578918419944,0,-13C0.8142510970534272,-12.909357598991221,1.199691740058966,-3.306972110534504,1,-6.123233995736766e-17" stroke="#cccccc" fill="#cccccc" fill-opacity="0.5"/><g id="dots"><circle cx="7.960204194457795e-16" cy="-13" r="1" stroke="none" fill="#cccccc"/><circle cx="1" cy="0" r="1" stroke="none" fill="#cccccc"/><circle cx="3.061616997868383e-16" cy="5" r="1" stroke="none" fill="#cccccc"/><circle cx="-4" cy="4.898587196589413e-16" r="1" stroke="none" fill="#cccccc"/></g></g><g id="70"><path d="M1,-6.123233995736766e-17C0.8703244525689003,1.6772826281954438,0.7040684704866467,3.80498432344943,4.898587196589413e-16,4C-0.824688921458076,4.228425607314506,-3.5935948548611925,1.831897048209828,-4,7.347880794884119e-16C-4.584590622826142,-2.635079425484591,-0.8310597815034625,-11.107852322159989,0,-11C0.8073132517988169,-10.895229427707937,1.212244193294842,-2.7452631232418283,1,-6.123233995736766e-17" stroke="#cccccc" fill="#cccccc" fill-opacity="0.5"/><g id="dots"><circle cx="6.735557395310443e-16" cy="-11" r="1" stroke="none" fill="#cccccc"/><circle cx="1" cy="0" r="1" stroke="none" fill="#cccccc"/><circle cx="2.4492935982947064e-16" cy="4" r="1" stroke="none" fill="#cccccc"/><circle cx="-4" cy="4.898587196589413e-16" r="1" stroke="none" fill="#cccccc"/></g></g><g id="71"><path d="M1,-6.123233995736766e-17C0.8751204836775127,2.068052877567992,0.737227441390321,4.8206249241314785,6.123233995736766e-16,5C-0.8261408925588155,5.201008639886438,-3.581499554035856,2.198329293937906,-4,7.347880794884119e-16C-4.609948114374765,-3.2039793996470807,-0.8316470553351488,-13.092578918419944,0,-13C0.8142510970534272,-12.909357598991221,1.199691740058966,-3.306972110534504,1,-6.123233995736766e-17" stroke="#cccccc" fill="#cccccc" fill-opacity="0.5"/><g id="dots"><circle cx="7.960204194457795e-16" cy="-13" r="1" stroke="none" fill="#cccccc"/><circle cx="1" cy="0" r="1" stroke="none" fill="#cccccc"/><circle cx="3.061616997868383e-16" cy="5" r="1" stroke="none" fill="#cccccc"/><circle cx="-4" cy="4.898587196589413e-16" r="1" stroke="none" fill="#cccccc"/></g></g><g id="72"><path d="M0,0C7.59530969418288e-17,1.2404082057734573,0.3841100321166599,2.840896415253715,3.6739403974420594e-16,3C-0.4567863831370547,3.189207115002721,-2.704672642552143,1.3634109938458148,-3,5.51091059616309e-16C-3.419098656048654,-1.9348147090085543,-0.491777219060055,-8.089176216343501,0,-8C0.47586381849935117,-7.913709433491749,-1.2403088792775068e-16,-2.0255781179374464,0,0" stroke="#cccccc" fill="#cccccc" fill-opacity="0.5"/><g id="dots"><circle cx="4.898587196589413e-16" cy="-8" r="1" stroke="none" fill="#cccccc"/><circle cx="0" cy="0" r="1" stroke="none" fill="#cccccc"/><circle cx="1.8369701987210297e-16" cy="3" r="1" stroke="none" fill="#cccccc"/><circle cx="-3" cy="3.6739403974420594e-16" r="1" stroke="none" fill="#cccccc"/></g></g><g id="73"><path d="M1,-6.123233995736766e-17C0.8754281654255155,1.2580533882117697,0.5789009592784408,2.8633400213704503,3.6739403974420594e-16,3C-0.6705364571880996,3.1582921852882695,-2.704672642552143,1.3634109938458148,-3,5.51091059616309e-16C-3.419098656048654,-1.9348147090085543,-0.6668090538620797,-8.078515115622247,0,-8C0.6477376064629607,-7.923730500103803,1.19890614459579,-2.008757035646392,1,-6.123233995736766e-17" stroke="#cccccc" fill="#cccccc" fill-opacity="0.5"/><g id="dots"><circle cx="4.898587196589413e-16" cy="-8" r="1" stroke="none" fill="#cccccc"/><circle cx="1" cy="0" r="1" stroke="none" fill="#cccccc"/><circle cx="1.8369701987210297e-16" cy="3" r="1" stroke="none" fill="#cccccc"/><circle cx="-3" cy="3.6739403974420594e-16" r="1" stroke="none" fill="#cccccc"/></g></g><g id="74"><path d="M1,-6.123233995736766e-17C0.9167983000944977,1.9172497504634864,0.8301960908026027,4.748636849164633,6.123233995736766e-16,5C-0.9776419940036364,5.296006178208028,-4.714559459063099,2.03806114571731,-5,9.184850993605148e-16C-5.34442892878491,-2.4592414760478443,-0.9900157869548201,-9.198852815517219,0,-9C0.9284726532140356,-8.813508629200495,1.1108772192802339,-2.55498771345483,1,-6.123233995736766e-17" stroke="#cccccc" fill="#cccccc" fill-opacity="0.5"/><g id="dots"><circle cx="5.51091059616309e-16" cy="-9" r="1" stroke="none" fill="#cccccc"/><circle cx="1" cy="0" r="1" stroke="none" fill="#cccccc"/><circle cx="3.061616997868383e-16" cy="5" r="1" stroke="none" fill="#cccccc"/><circle cx="-5" cy="6.123233995736766e-16" r="1" stroke="none" fill="#cccccc"/></g></g><g id="75"><path d="M1,-6.123233995736766e-17C0.9050427262300658,1.5725290187607979,0.7040684704866467,3.80498432344943,4.898587196589413e-16,4C-0.824688921458076,4.228425607314506,-3.7270276383560677,1.6821314860018095,-4,7.347880794884119e-16C-4.343244572910581,-2.115168363620906,-0.8294693469639893,-8.142082068522276,0,-8C0.787510193011923,-7.865105229487924,1.1327835716722199,-2.19894707776861,1,-6.123233995736766e-17" stroke="#cccccc" fill="#cccccc" fill-opacity="0.5"/><g id="dots"><circle cx="4.898587196589413e-16" cy="-8" r="1" stroke="none" fill="#cccccc"/><circle cx="1" cy="0" r="1" stroke="none" fill="#cccccc"/><circle cx="2.4492935982947064e-16" cy="4" r="1" stroke="none" fill="#cccccc"/><circle cx="-4" cy="4.898587196589413e-16" r="1" stroke="none" fill="#cccccc"/></g></g><g id="76"><path d="M1,-6.123233995736766e-17C0.8915915544760922,1.6117367497201591,0.6068668517993122,3.8774486913642265,4.898587196589413e-16,4C-0.6682918856523326,4.134955542380565,-2.725979529115477,1.6885902261605152,-3,5.51091059616309e-16C-3.37744930799686,-2.325947438515062,-0.6667579901686232,-9.070636577794467,0,-9C0.6514199645021486,-8.930988338080827,1.1606587375007908,-2.3885555239011667,1,-6.123233995736766e-17" stroke="#cccccc" fill="#cccccc" fill-opacity="0.5"/><g id="dots"><circle cx="5.51091059616309e-16" cy="-9" r="1" stroke="none" fill="#cccccc"/><circle cx="1" cy="0" r="1" stroke="none" fill="#cccccc"/><circle cx="2.4492935982947064e-16" cy="4" r="1" stroke="none" fill="#cccccc"/><circle cx="-3" cy="3.6739403974420594e-16" r="1" stroke="none" fill="#cccccc"/></g></g><g id="77"><path d="M2,-1.2246467991473532e-16C1.8583407080735121,2.2753680593647183,1.0612767200292585,5.799751460817761,7.347880794884119e-16,6C-1.1793591983495768,6.2225291030921035,-4.726341636593783,2.35785750778956,-5,9.184850993605148e-16C-5.327418918664136,-2.821061801128299,-1.1712187858334977,-10.156847375349857,0,-10C1.118584665181407,-9.850201285223202,2.17988228831591,-2.889315679283905,2,-1.2246467991473532e-16" stroke="#cccccc" fill="#cccccc" fill-opacity="0.5"/><g id="dots"><circle cx="6.123233995736766e-16" cy="-10" r="1" stroke="none" fill="#cccccc"/><circle cx="2" cy="0" r="1" stroke="none" fill="#cccccc"/><circle cx="3.6739403974420594e-16" cy="6" r="1" stroke="none" fill="#cccccc"/><circle cx="-5" cy="6.123233995736766e-16" r="1" stroke="none" fill="#cccccc"/></g></g><g id="78"><path d="M1,-6.123233995736766e-17C0.9291703540367562,1.1376840296823594,0.47406772900442923,2.93651375820488,3.6739403974420594e-16,3C-0.5062047672563046,3.067789972372441,-1.8788337410781597,1.1636955280904153,-2,3.6739403974420594e-16C-2.1480796435732086,-1.4221749566314623,-0.5024007605736597,-5.046126462388088,0,-5C0.4888708313643239,-4.955115748650916,1.089941144157955,-1.444657839641953,1,-6.123233995736766e-17" stroke="#cccccc" fill="#cccccc" fill-opacity="0.5"/><g id="dots"><circle cx="3.061616997868383e-16" cy="-5" r="1" stroke="none" fill="#cccccc"/><circle cx="1" cy="0" r="1" stroke="none" fill="#cccccc"/><circle cx="1.8369701987210297e-16" cy="3" r="1" stroke="none" fill="#cccccc"/><circle cx="-2" cy="2.4492935982947064e-16" r="1" stroke="none" fill="#cccccc"/></g></g><g id="79"><path d="M1,-6.123233995736766e-17C0.8754281654255155,1.2580533882117697,0.47406772900442923,2.93651375820488,3.6739403974420594e-16,3C-0.5062047672563046,3.067789972372441,-1.774159485056866,1.303825566055663,-2,3.6739403974420594e-16C-2.3415413144314714,-1.9717910124856748,-0.500961325742762,-8.03025058437026,0,-8C0.49534217934707936,-7.970088728174235,1.19890614459579,-2.008757035646392,1,-6.123233995736766e-17" stroke="#cccccc" fill="#cccccc" fill-opacity="0.5"/><g id="dots"><circle cx="4.898587196589413e-16" cy="-8" r="1" stroke="none" fill="#cccccc"/><circle cx="1" cy="0" r="1" stroke="none" fill="#cccccc"/><circle cx="1.8369701987210297e-16" cy="3" r="1" stroke="none" fill="#cccccc"/><circle cx="-2" cy="2.4492935982947064e-16" r="1" stroke="none" fill="#cccccc"/></g></g><g id="80"><path d="M1,-6.123233995736766e-17C0.9070079159376048,1.1851960162736377,0.47406772900442923,2.93651375820488,3.6739403974420594e-16,3C-0.5062047672563046,3.067789972372441,-1.8366943535650322,1.2194443197451408,-2,3.6739403974420594e-16C-2.2162869721348923,-1.6150691991522959,-0.5016880788837811,-6.03936312589992,0,-6C0.4920046582311315,-5.961396648394778,1.1289722902255046,-1.6437683500285043,1,-6.123233995736766e-17" stroke="#cccccc" fill="#cccccc" fill-opacity="0.5"/><g id="dots"><circle cx="3.6739403974420594e-16" cy="-6" r="1" stroke="none" fill="#cccccc"/><circle cx="1" cy="0" r="1" stroke="none" fill="#cccccc"/><circle cx="1.8369701987210297e-16" cy="3" r="1" stroke="none" fill="#cccccc"/><circle cx="-2" cy="2.4492935982947064e-16" r="1" stroke="none" fill="#cccccc"/></g></g><g id="81"><path d="M1,-6.123233995736766e-17C0.9212022327221199,1.5274884010503975,0.6068668517993122,3.8774486913642265,4.898587196589413e-16,4C-0.6682918856523326,4.134955542380565,-2.8102667241708823,1.5827732336012912,-3,5.51091059616309e-16C-3.234161505303411,-1.9533977965353158,-0.6669004136367563,-7.088204633192122,0,-7C0.6426085350151265,-6.915008224679241,1.1031915611362448,-2.000360139216089,1,-6.123233995736766e-17" stroke="#cccccc" fill="#cccccc" fill-opacity="0.5"/><g id="dots"><circle cx="4.286263797015736e-16" cy="-7" r="1" stroke="none" fill="#cccccc"/><circle cx="1" cy="0" r="1" stroke="none" fill="#cccccc"/><circle cx="2.4492935982947064e-16" cy="4" r="1" stroke="none" fill="#cccccc"/><circle cx="-3" cy="3.6739403974420594e-16" r="1" stroke="none" fill="#cccccc"/></g></g><g id="82"><path d="M0,0C5.0012461804363976e-17,0.8167654843696092,0.15322815507487347,1.9638277393354506,2.4492935982947064e-16,2C-0.1620190479261851,2.0382475089603753,-0.8874050763670565,0.8407746030447804,-1,1.8369701987210297e-16C-1.1700276868983661,-1.269639485920568,-0.16584957502233227,-5.016422344248281,0,-5C0.16423133689185615,-4.9837378929042755,-7.907664534698226e-17,-1.2914196224093102,0,0" stroke="#cccccc" fill="#cccccc" fill-opacity="0.5"/><g id="dots"><circle cx="3.061616997868383e-16" cy="-5" r="1" stroke="none" fill="#cccccc"/><circle cx="0" cy="0" r="1" stroke="none" fill="#cccccc"/><circle cx="1.2246467991473532e-16" cy="2" r="1" stroke="none" fill="#cccccc"/><circle cx="-1" cy="1.2246467991473532e-16" r="1" stroke="none" fill="#cccccc"/></g></g><g id="83"><path d="M1,-6.123233995736766e-17C0.9041000268995087,1.961049188201042,0.737227441390321,4.8206249241314785,6.123233995736766e-16,5C-0.8261408925588155,5.201008639886438,-3.6947307894656594,2.06001400190201,-4,7.347880794884119e-16C-4.395914617599558,-2.6717062437615846,-0.8306520410887912,-10.117411919026843,0,-10C0.802389030331595,-9.886583032127588,1.1346342302901966,-2.7531222322450306,1,-6.123233995736766e-17" stroke="#cccccc" fill="#cccccc" fill-opacity="0.5"/><g id="dots"><circle cx="6.123233995736766e-16" cy="-10" r="1" stroke="none" fill="#cccccc"/><circle cx="1" cy="0" r="1" stroke="none" fill="#cccccc"/><circle cx="3.061616997868383e-16" cy="5" r="1" stroke="none" fill="#cccccc"/><circle cx="-4" cy="4.898587196589413e-16" r="1" stroke="none" fill="#cccccc"/></g></g><g id="84"><path d="M0,0C7.59530969418288e-17,1.2404082057734573,0.3841100321166599,2.840896415253715,3.6739403974420594e-16,3C-0.4567863831370547,3.189207115002721,-2.704672642552143,1.3634109938458148,-3,5.51091059616309e-16C-3.419098656048654,-1.9348147090085543,-0.491777219060055,-8.089176216343501,0,-8C0.47586381849935117,-7.913709433491749,-1.2403088792775068e-16,-2.0255781179374464,0,0" stroke="#cccccc" fill="#cccccc" fill-opacity="0.5"/><g id="dots"><circle cx="4.898587196589413e-16" cy="-8" r="1" stroke="none" fill="#cccccc"/><circle cx="0" cy="0" r="1" stroke="none" fill="#cccccc"/><circle cx="1.8369701987210297e-16" cy="3" r="1" stroke="none" fill="#cccccc"/><circle cx="-3" cy="3.6739403974420594e-16" r="1" stroke="none" fill="#cccccc"/></g></g><g id="85"><path d="M0,0C7.59530969418288e-17,1.2404082057734573,0.3841100321166599,2.840896415253715,3.6739403974420594e-16,3C-0.4567863831370547,3.189207115002721,-2.704672642552143,1.3634109938458148,-3,5.51091059616309e-16C-3.419098656048654,-1.9348147090085543,-0.491777219060055,-8.089176216343501,0,-8C0.47586381849935117,-7.913709433491749,-1.2403088792775068e-16,-2.0255781179374464,0,0" stroke="#cccccc" fill="#cccccc" fill-opacity="0.5"/><g id="dots"><circle cx="4.898587196589413e-16" cy="-8" r="1" stroke="none" fill="#cccccc"/><circle cx="0" cy="0" r="1" stroke="none" fill="#cccccc"/><circle cx="1.8369701987210297e-16" cy="3" r="1" stroke="none" fill="#cccccc"/><circle cx="-3" cy="3.6739403974420594e-16" r="1" stroke="none" fill="#cccccc"/></g></g></g></g><text x="5" y="5" style="font-family: Arial, sans-serif; font-size: 12px; fill: black; font-weight: bold; dominant-baseline: hanging;"/></g><g id="grid"><rect x="0" y="0" width="805" height="600" fill="none" stroke="#ccc"/></g><g id="legend" transform="translate(805,30)"><g transform="translate(5,0)"/></g></svg>